<?xml version="1.0" ?><svg viewBox="0 0 32 32" xmlns="http://www.w3.org/2000/svg"><defs><style>.cls-1{fill:#9ac3f4;}.cls-2{fill:#98cbf4;}.cls-3{fill:#5ca3f7;}.cls-4{fill:#2983ef;}.cls-5{fill:#2f7ded;}</style></defs><title/><g data-name="Rainbow Sun" id="Rainbow_Sun"><path class="cls-1" d="M13,8A7,7,0,0,0,6.9,18.43a1,1,0,0,0,.68.49l.19,0a1,1,0,0,0,.63-.23,12.11,12.11,0,0,1,10.35-2.39,1,1,0,0,0,.78-.13,1,1,0,0,0,.43-.66A3.08,3.08,0,0,0,20,15,7,7,0,0,0,13,8Z"/><path class="cls-2" d="M21,29a1,1,0,0,1-1-1,4,4,0,0,0-8,0,1,1,0,0,1-2,0,6,6,0,0,1,12,0A1,1,0,0,1,21,29Z"/><path class="cls-3" d="M25,29a1,1,0,0,1-1-1,8.05,8.05,0,0,0-6.78-7.91A9.11,9.11,0,0,0,16,20a8,8,0,0,0-8,8,1,1,0,0,1-2,0A10,10,0,0,1,16,18a11.91,11.91,0,0,1,1.5.11A10.07,10.07,0,0,1,26,28,1,1,0,0,1,25,29Z"/><path class="cls-4" d="M29,29a1,1,0,0,1-1-1,11.94,11.94,0,0,0-9.25-11.68A12,12,0,0,0,4,28a1,1,0,0,1-2,0,14,14,0,0,1,28,0A1,1,0,0,1,29,29Z"/><path class="cls-5" d="M4,16H3a1,1,0,0,1,0-2H4a1,1,0,0,1,0,2Z"/><path class="cls-5" d="M6.64,9.64a1,1,0,0,1-.71-.3l-.71-.7A1,1,0,1,1,6.64,7.22l.7.71a1,1,0,0,1,0,1.41A1,1,0,0,1,6.64,9.64Z"/><path class="cls-5" d="M13,7a1,1,0,0,1-1-1V5a1,1,0,0,1,2,0V6A1,1,0,0,1,13,7Z"/><path class="cls-5" d="M19.36,9.64a1,1,0,0,1-.7-.3,1,1,0,0,1,0-1.41l.7-.71a1,1,0,1,1,1.42,1.42l-.71.7A1,1,0,0,1,19.36,9.64Z"/><path class="cls-5" d="M16,22a6,6,0,0,0-6,6,1,1,0,0,0,2,0,4,4,0,0,1,8,0,1,1,0,0,0,2,0A6,6,0,0,0,16,22Z"/><path class="cls-5" d="M16,18A10,10,0,0,0,6,28a1,1,0,0,0,2,0,8,8,0,0,1,16,0,1,1,0,0,0,2,0A10,10,0,0,0,16,18Z"/><path class="cls-5" d="M20,14.59A7,7,0,1,0,6.55,17.7,13.93,13.93,0,0,0,2,28a1,1,0,0,0,2,0,12,12,0,1,1,24,0,1,1,0,0,0,2,0A13.92,13.92,0,0,0,20,14.59ZM13,10a5,5,0,0,1,4.92,4.13,14.26,14.26,0,0,0-9.73,2.25A4.89,4.89,0,0,1,8,15,5,5,0,0,1,13,10Z"/></g></svg>