<?xml version="1.0" ?><svg viewBox="0 0 32 32" xmlns="http://www.w3.org/2000/svg"><defs><style>.cls-1{fill:#9ac3f4;}.cls-2{fill:#2f7ded;}</style></defs><title/><g data-name="sunset" id="sunset-2"><path class="cls-1" d="M16,15a7,7,0,0,0-7,7,1,1,0,0,0,1,1H22a1,1,0,0,0,1-1A7,7,0,0,0,16,15Z"/><path class="cls-2" d="M16,13a1,1,0,0,0,1-1V10a1,1,0,0,0-2,0v2A1,1,0,0,0,16,13Z"/><path class="cls-2" d="M9.64,14.22,8.22,12.81a1,1,0,0,0-1.41,1.41l1.41,1.42a1,1,0,0,0,.71.29,1,1,0,0,0,.71-.29A1,1,0,0,0,9.64,14.22Z"/><path class="cls-2" d="M6,21H4a1,1,0,0,0,0,2H6a1,1,0,0,0,0-2Z"/><path class="cls-2" d="M28,21H26a1,1,0,0,0,0,2h2a1,1,0,0,0,0-2Z"/><path class="cls-2" d="M25.19,12.81a1,1,0,0,0-1.41,0l-1.42,1.41a1,1,0,0,0,0,1.42,1,1,0,0,0,.71.29,1,1,0,0,0,.71-.29l1.41-1.42A1,1,0,0,0,25.19,12.81Z"/><path class="cls-2" d="M16,15a7,7,0,0,0-7,7,1,1,0,0,0,1,1H22a1,1,0,0,0,1-1A7,7,0,0,0,16,15Zm-4.9,6a5,5,0,0,1,9.8,0Z"/></g></svg>