<?xml version="1.0" ?><svg viewBox="0 0 32 32" xmlns="http://www.w3.org/2000/svg"><defs><style>.cls-1{fill:#2f7ded;}.cls-2{fill:#9ac3f4;}</style></defs><title/><g id="Sunset"><path class="cls-1" d="M16,13a1,1,0,0,0,1-1V10a1,1,0,0,0-2,0v2A1,1,0,0,0,16,13Z"/><path class="cls-1" d="M8.22,15.64a1,1,0,0,0,.71.29,1,1,0,0,0,.71-.29,1,1,0,0,0,0-1.42L8.22,12.81a1,1,0,0,0-1.41,1.41Z"/><path class="cls-2" d="M28,21H22.92A7,7,0,0,0,9.08,21H4a1,1,0,0,0,0,2H28a1,1,0,0,0,0-2Z"/><path class="cls-1" d="M23.07,15.93a1,1,0,0,0,.71-.29l1.41-1.42a1,1,0,0,0-1.41-1.41l-1.42,1.41a1,1,0,0,0,0,1.42A1,1,0,0,0,23.07,15.93Z"/><path class="cls-1" d="M28,21H22.92A7,7,0,0,0,9.08,21H4a1,1,0,0,0,0,2H28a1,1,0,0,0,0-2ZM11.1,21a5,5,0,0,1,9.8,0Z"/></g></svg>