<?xml version="1.0" ?><svg viewBox="0 0 32 32" xmlns="http://www.w3.org/2000/svg"><defs><style>.cls-1{fill:#9ac3f4;}.cls-2{fill:#2f7ded;}</style></defs><title/><g id="star"><path class="cls-1" d="M29,12.69A1,1,0,0,0,28,12H19.37L17,4.43a1,1,0,0,0-.95-.7h0a1,1,0,0,0-1,.7L12.7,12H4a1,1,0,0,0-.59,1.8L10.48,19,8.05,26.7a1,1,0,0,0,1.54,1.11L16,23.08l6.41,4.73a1,1,0,0,0,1.17,0A1,1,0,0,0,24,26.7L21.55,19l7-5.18A1,1,0,0,0,29,12.69Z"/><path class="cls-2" d="M29,12.69A1,1,0,0,0,28,12H19.37L17,4.43a1,1,0,0,0-.95-.7h0a1,1,0,0,0-1,.7L12.7,12H4a1,1,0,0,0-.59,1.8L10.48,19,8.05,26.7a1,1,0,0,0,1.54,1.11L16,23.08l6.41,4.73a1,1,0,0,0,1.17,0A1,1,0,0,0,24,26.7L21.55,19l7-5.18A1,1,0,0,0,29,12.69ZM19.79,17.8a1,1,0,0,0-.36,1.11l1.7,5.47L16.59,21a1,1,0,0,0-1.18,0l-4.53,3.33,1.72-5.43a1,1,0,0,0-.36-1.1L7,14h6.39a1,1,0,0,0,1-.7L16,8.06l1.63,5.24a1,1,0,0,0,1,.7H25Z"/></g></svg>