<?xml version="1.0" ?><svg viewBox="0 0 32 32" xmlns="http://www.w3.org/2000/svg"><defs><style>.cls-1{fill:#9ac3f4;}.cls-2{fill:#fff;}.cls-3{fill:#2f7ded;}</style></defs><title/><g data-name="Cloud thunder" id="Cloud_thunder-2"><path class="cls-1" d="M27.89,9.86A6,6,0,0,0,22,5h0a7.12,7.12,0,0,0-.92.07A7.5,7.5,0,0,0,7.88,7.13,5,5,0,0,0,4.11,13a5.08,5.08,0,0,0,5.06,4H22a6,6,0,0,0,5.89-7.14Z"/><path class="cls-2" d="M22.3,18.62a1,1,0,0,0-.92-.62H16.62l1.23-5.53a1,1,0,0,0-1.74-.87L7.86,21.35A1,1,0,0,0,8.63,23h3.86l-1.81,5.43a1,1,0,0,0,.42,1.17,1,1,0,0,0,.53.15,1,1,0,0,0,.7-.29l9.75-9.75A1,1,0,0,0,22.3,18.62Z"/><path class="cls-3" d="M27.89,9.86A6,6,0,0,0,22,5h0a7.12,7.12,0,0,0-.92.07A7.5,7.5,0,0,0,7.88,7.13,5,5,0,0,0,4.11,13a5.08,5.08,0,0,0,5.06,4h2.38L7.86,21.35A1,1,0,0,0,8.63,23h3.86l-1.81,5.43a1,1,0,0,0,.42,1.17,1,1,0,0,0,.53.15,1,1,0,0,0,.7-.29l9.75-9.75a1,1,0,0,0-.7-1.71H16.62l.22-1H22a6,6,0,0,0,5.89-7.14ZM19,20l-5.05,5.05.91-2.73A1,1,0,0,0,13.88,21h-3.1L15,16l-.62,2.79a1,1,0,0,0,.19.85,1,1,0,0,0,.79.37Zm6.12-6.45A4,4,0,0,1,22,15H17.29l.56-2.53a1,1,0,0,0-1.74-.87L13.24,15H9.17a3.08,3.08,0,0,1-3.1-2.36,3,3,0,0,1,.53-2.45A3,3,0,0,1,8.75,9a1,1,0,0,0,.89-.77,5.5,5.5,0,0,1,10.1-1.54,1,1,0,0,0,1.14.45A3.8,3.8,0,0,1,22,7h0a4,4,0,0,1,3.08,6.55Z"/></g></svg>