<?xml version="1.0" ?><svg viewBox="0 0 32 32" xmlns="http://www.w3.org/2000/svg"><defs><style>.cls-1{fill:#9ac3f4;}.cls-2{fill:#2f7ded;}.cls-3{fill:#fff;}</style></defs><title/><g data-name="Cloud Block" id="Cloud_Block"><path class="cls-1" d="M27.89,14.86A6,6,0,0,0,22,10h0a6.84,6.84,0,0,0-.91.07A7.55,7.55,0,0,0,15,7a7.47,7.47,0,0,0-7.12,5.13A5,5,0,0,0,4.11,18a5.08,5.08,0,0,0,5.06,4H22a6,6,0,0,0,5.89-7.14Z"/><path class="cls-2" d="M27.89,14.86A6,6,0,0,0,22.38,10l1.33-1.32a1,1,0,1,0-1.42-1.42l-1.95,2A7.49,7.49,0,0,0,7.88,12.13a5,5,0,0,0-.1,9.67L6.29,23.29a1,1,0,0,0,0,1.42,1,1,0,0,0,1.42,0L10.41,22H22a6,6,0,0,0,5.89-7.14ZM9.59,20H9.17a3.08,3.08,0,0,1-3.1-2.36,3,3,0,0,1,.53-2.45A3,3,0,0,1,8.75,14a1,1,0,0,0,.89-.77A5.49,5.49,0,0,1,15,9a5.4,5.4,0,0,1,3.93,1.66Zm15.49-1.45A4,4,0,0,1,22,20H12.41l7.87-7.86a1,1,0,0,0,.6,0A3.71,3.71,0,0,1,22,12h0a4,4,0,0,1,3.08,6.55Z"/><path class="cls-3" d="M18.93,10.66,9.59,20H9.17a3.08,3.08,0,0,1-3.1-2.36,3,3,0,0,1,.53-2.45A3,3,0,0,1,8.75,14a1,1,0,0,0,.89-.77A5.49,5.49,0,0,1,15,9,5.4,5.4,0,0,1,18.93,10.66Z"/></g></svg>