<?xml version="1.0" ?><svg viewBox="0 0 32 32" xmlns="http://www.w3.org/2000/svg"><defs><style>.cls-1{fill:#b3bfc6;}.cls-2{fill:#9ac3f4;}.cls-3{fill:#fff;}.cls-4{fill:#2f7ded;}</style></defs><title/><g data-name="Umbrella drop" id="Umbrella_drop"><path class="cls-1" d="M14,30a3,3,0,0,1-3-3,1,1,0,0,1,2,0,1,1,0,0,0,2,0V16a1,1,0,0,1,2,0V27A3,3,0,0,1,14,30Z"/><path class="cls-1" d="M16,8a1,1,0,0,1-1-1V4a1,1,0,0,1,2,0V7A1,1,0,0,1,16,8Z"/><path class="cls-2" d="M25.85,10.51a1,1,0,0,0-1.75.5,1.14,1.14,0,0,1-.89,1h-.4a1,1,0,0,1-.78-.57,1.36,1.36,0,0,1,0-1.21l.65-1.29a1,1,0,0,0-.41-1.33,13.06,13.06,0,0,0-12.11-.2,1,1,0,0,0-.5,1.19,2,2,0,0,1-.22,1.65A1.57,1.57,0,0,1,8.27,11a1.69,1.69,0,0,1-.55,0,1.57,1.57,0,0,1-.64-.24A1,1,0,0,0,5.76,11,12.94,12.94,0,0,0,3,19a1,1,0,0,0,1,1h.13a1,1,0,0,0,1-.75,3,3,0,0,1,5.8,0,1,1,0,0,0,1,.75h.26a1,1,0,0,0,1-.75,3,3,0,0,1,5.8,0,1,1,0,0,0,1,.75h.26a1,1,0,0,0,1-.75,3,3,0,0,1,5.8,0,1,1,0,0,0,1,.75H28a1,1,0,0,0,1-1A13,13,0,0,0,25.85,10.51Z"/><path class="cls-3" d="M11.56,8a3.3,3.3,0,0,0-.25-.63L8.89,2.55a1,1,0,0,0-1.78,0L4.69,7.39A3.93,3.93,0,0,0,6,12.44,3.45,3.45,0,0,0,7.44,13,3.52,3.52,0,0,0,8,13a3.39,3.39,0,0,0,.55,0,3.57,3.57,0,0,0,2.56-1.65A4,4,0,0,0,11.56,8Z"/><path class="cls-3" d="M25.77,9.31,23.89,5.55A1,1,0,0,0,23,5h0a1,1,0,0,0-.9.55L20.22,9.31a3.35,3.35,0,0,0,.05,3A3,3,0,0,0,22.6,14l.4,0,.45,0a3.11,3.11,0,0,0,2.63-2.65A3.3,3.3,0,0,0,25.77,9.31Z"/><path class="cls-4" d="M26.12,10.85a3.27,3.27,0,0,0-.35-1.54L23.89,5.55A1,1,0,0,0,23,5h0a1,1,0,0,0-.9.55l-.79,1.6A13.09,13.09,0,0,0,17,6.06V4a1,1,0,0,0-2,0V6.06A12.75,12.75,0,0,0,11.1,7L8.89,2.55a1,1,0,0,0-1.78,0L4.69,7.39a4,4,0,0,0,.53,4.33A12.93,12.93,0,0,0,3,19a1,1,0,0,0,1,1h.13a1,1,0,0,0,1-.75,3,3,0,0,1,5.8,0,1,1,0,0,0,1,.75h.26a1,1,0,0,0,1-.75A3,3,0,0,1,15,17.17V27a1,1,0,0,1-2,0,1,1,0,0,0-2,0,3,3,0,0,0,6,0V17.17a3,3,0,0,1,1.9,2.08,1,1,0,0,0,1,.75h.26a1,1,0,0,0,1-.75,3,3,0,0,1,5.8,0,1,1,0,0,0,1,.75H28a1,1,0,0,0,1-1A13,13,0,0,0,26.12,10.85ZM23,8.24l1,2A1.24,1.24,0,0,1,23.21,12h-.4a1.23,1.23,0,0,1-.8-1.78C23.21,7.83,21.81,10.62,23,8.24Zm-16.53,0L8,5.24l1.53,3A1.86,1.86,0,0,1,8.27,11a1.69,1.69,0,0,1-.55,0A1.86,1.86,0,0,1,6.47,8.29ZM24,15a5,5,0,0,0-4,2,5,5,0,0,0-8,0,5,5,0,0,0-6.49-1.34,10.37,10.37,0,0,1,1.37-2.82,3.77,3.77,0,0,0,4.84-4,11.18,11.18,0,0,1,8.7.06C18.37,13,23,15.47,25.25,13a11.19,11.19,0,0,1,1.23,2.62A5,5,0,0,0,24,15Z"/></g></svg>