<?xml version="1.0" ?><svg viewBox="0 0 32 32" xmlns="http://www.w3.org/2000/svg"><defs><style>.cls-1{fill:#9ac3f4;}.cls-2{fill:#2f7ded;}</style></defs><title/><g id="Storm"><path class="cls-1" d="M25.42,13.62A1,1,0,0,0,24.5,13H17.75l1.73-7.78a1,1,0,0,0-.54-1.12,1,1,0,0,0-1.2.25l-11,13a1,1,0,0,0-.15,1.07A1,1,0,0,0,7.5,19h5.61l-2.56,7.68A1,1,0,0,0,11,27.85a1,1,0,0,0,.53.15,1,1,0,0,0,.71-.29l13-13A1,1,0,0,0,25.42,13.62Z"/><path class="cls-2" d="M11.5,28a1,1,0,0,1-.53-.15,1,1,0,0,1-.42-1.17L13.11,19H7.5a1,1,0,0,1-.91-.58,1,1,0,0,1,.15-1.07l11-13a1,1,0,0,1,1.2-.25,1,1,0,0,1,.54,1.12L17.75,13H24.5a1,1,0,0,1,.92.62,1,1,0,0,1-.21,1.09l-13,13A1,1,0,0,1,11.5,28ZM9.66,17H14.5a1,1,0,0,1,.81.42,1,1,0,0,1,.14.9l-1.66,5,8.3-8.3H16.5a1,1,0,0,1-.78-.37,1,1,0,0,1-.2-.85l1.12-5Z"/></g></svg>