<?xml version="1.0" ?><svg viewBox="0 0 32 32" xmlns="http://www.w3.org/2000/svg"><defs><style>.cls-1{fill:#9ac3f4;}.cls-2{fill:#5ca3f7;}.cls-3{fill:#2f7ded;}</style></defs><title/><g data-name="Cloud Upload" id="Cloud_Upload"><path class="cls-1" d="M27.89,13.86A6,6,0,0,0,22,9h0a7.12,7.12,0,0,0-.92.07A7.5,7.5,0,0,0,7.88,11.13,5,5,0,0,0,4.11,17a5.08,5.08,0,0,0,5.06,4H22a6,6,0,0,0,5.89-7.14Z"/><path class="cls-2" d="M19.71,15.29l-3-3a1,1,0,0,0-1.42,0l-3,3a1,1,0,0,0,0,1.42,1,1,0,0,0,1.42,0L15,15.41V25a1,1,0,0,0,2,0V15.41l1.29,1.3a1,1,0,0,0,1.42,0A1,1,0,0,0,19.71,15.29Z"/><path class="cls-3" d="M27.89,13.86A6,6,0,0,0,22,9h0a7.12,7.12,0,0,0-.92.07A7.5,7.5,0,0,0,7.88,11.13,5,5,0,0,0,4.11,17a5.08,5.08,0,0,0,5.06,4H15v4a1,1,0,0,0,2,0V21h5a6,6,0,0,0,5.89-7.14Zm-2.81,3.69A4,4,0,0,1,22,19H17V15.41l1.29,1.3a1,1,0,0,0,1.42,0,1,1,0,0,0,0-1.42l-3-3a1,1,0,0,0-1.42,0l-3,3a1,1,0,0,0,0,1.42,1,1,0,0,0,1.42,0L15,15.41V19H9.17a3.08,3.08,0,0,1-3.1-2.36,3,3,0,0,1,.53-2.45A3,3,0,0,1,8.75,13a1,1,0,0,0,.89-.77,5.5,5.5,0,0,1,10.1-1.54,1,1,0,0,0,1.14.45A3.8,3.8,0,0,1,22,11h0a4,4,0,0,1,3.08,6.55Z"/></g></svg>