<?xml version="1.0" ?><svg viewBox="0 0 32 32" xmlns="http://www.w3.org/2000/svg"><defs><style>.cls-1{fill:#9ac3f4;}.cls-2{fill:#fff;}.cls-3{fill:#2f7ded;}</style></defs><title/><g id="stars"><path class="cls-1" d="M10,18a1,1,0,0,0,1-1,6,6,0,0,1,6-6,1,1,0,0,0,0-2,6,6,0,0,1-6-6A1,1,0,0,0,9,3,6,6,0,0,1,3,9a1,1,0,0,0,0,2,6,6,0,0,1,6,6A1,1,0,0,0,10,18Z"/><path class="cls-2" d="M22,22a5,5,0,0,1-5-5,1,1,0,0,0-2,0,5,5,0,0,1-5,5,1,1,0,0,0,0,2,5,5,0,0,1,5,5,1,1,0,0,0,2,0,5,5,0,0,1,5-5,1,1,0,0,0,0-2Z"/><path class="cls-1" d="M29,14a3.5,3.5,0,0,1-3.5-3.5,1,1,0,0,0-2,0A3.5,3.5,0,0,1,20,14a1,1,0,0,0,0,2,3.5,3.5,0,0,1,3.5,3.5,1,1,0,0,0,2,0A3.5,3.5,0,0,1,29,16a1,1,0,0,0,0-2Z"/><path class="cls-3" d="M10,18a1,1,0,0,0,1-1,6,6,0,0,1,6-6,1,1,0,0,0,0-2,6,6,0,0,1-6-6A1,1,0,0,0,9,3,6,6,0,0,1,3,9a1,1,0,0,0,0,2,6,6,0,0,1,6,6A1,1,0,0,0,10,18ZM6.87,10A8.12,8.12,0,0,0,10,6.87,8.12,8.12,0,0,0,13.13,10,8.12,8.12,0,0,0,10,13.13,8.12,8.12,0,0,0,6.87,10Z"/><path class="cls-3" d="M22,22a5,5,0,0,1-5-5,1,1,0,0,0-2,0,5,5,0,0,1-5,5,1,1,0,0,0,0,2,5,5,0,0,1,5,5,1,1,0,0,0,2,0,5,5,0,0,1,5-5,1,1,0,0,0,0-2Zm-6,3.4A7.07,7.07,0,0,0,13.6,23,7.07,7.07,0,0,0,16,20.6,7.07,7.07,0,0,0,18.4,23,7.07,7.07,0,0,0,16,25.4Z"/><path class="cls-3" d="M29,14a3.5,3.5,0,0,1-3.5-3.5,1,1,0,0,0-2,0A3.5,3.5,0,0,1,20,14a1,1,0,0,0,0,2,3.5,3.5,0,0,1,3.5,3.5,1,1,0,0,0,2,0A3.5,3.5,0,0,1,29,16a1,1,0,0,0,0-2Zm-4.5,2.34A5.68,5.68,0,0,0,23.16,15a5.68,5.68,0,0,0,1.34-1.34A5.68,5.68,0,0,0,25.84,15,5.68,5.68,0,0,0,24.5,16.34Z"/></g></svg>