<?xml version="1.0" ?><svg viewBox="0 0 32 32" xmlns="http://www.w3.org/2000/svg"><defs><style>.cls-1{fill:#9ac3f4;}.cls-2{fill:#2f7ded;}</style></defs><title/><g data-name="Cloud failed" id="Cloud_failed"><path class="cls-1" d="M26.62,19.83A6,6,0,0,1,22,22H9.17a5.08,5.08,0,0,1-5.06-4,5,5,0,0,1,3.77-5.91,7.5,7.5,0,0,1,13.17-2.06A7.12,7.12,0,0,1,22,10h0a6,6,0,0,1,4.62,9.83Z"/><path class="cls-2" d="M17.41,21l1.3-1.29a1,1,0,0,0-1.42-1.42L16,19.59l-1.29-1.3a1,1,0,0,0-1.42,1.42L14.59,21l-1.3,1.29a1,1,0,0,0,0,1.42,1,1,0,0,0,1.42,0L16,22.41l1.29,1.3a1,1,0,0,0,1.42,0,1,1,0,0,0,0-1.42Z"/><path class="cls-2" d="M22,22H21a1,1,0,0,1,0-2h1a4,4,0,1,0,0-8,3.8,3.8,0,0,0-1.1.16,1,1,0,0,1-1.14-.45,5.5,5.5,0,0,0-10.1,1.54,1,1,0,0,1-.89.77A3,3,0,0,0,6.6,15.19a3,3,0,0,0-.53,2.45A3.08,3.08,0,0,0,9.17,20H11a1,1,0,0,1,0,2H9.17a5.08,5.08,0,0,1-5.06-4,5,5,0,0,1,3.77-5.91,7.5,7.5,0,0,1,13.17-2.06A7.12,7.12,0,0,1,22,10h0a6,6,0,1,1,0,12Z"/></g></svg>